<?xml version="1.0" encoding="UTF-8" standalone="no"?>
<svg id="svg5604" xmlns:rdf="http://www.w3.org/1999/02/22-rdf-syntax-ns#" xmlns="http://www.w3.org/2000/svg" height="19" width="19" version="1.1" xmlns:cc="http://creativecommons.org/ns#" xmlns:dc="http://purl.org/dc/elements/1.1/" viewBox="0 0 19 19">
 <metadata id="metadata5616">
  <rdf:RDF>
   <cc:Work rdf:about="">
    <dc:format>image/svg+xml</dc:format>
    <dc:type rdf:resource="http://purl.org/dc/dcmitype/StillImage"/>
    <dc:title>car-15.svg</dc:title>
   </cc:Work>
  </rdf:RDF>
 </metadata>
 <title id="title5606">car-15.svg</title>
 <rect id="rect5608" height="19" width="19" y="0" x="0" fill="none"/>
 <path id="path5610" d="m14 7c-0.004-0.6904-0.4787-1.2889-1.15-1.45l-1.39-3.24c-0.077-0.1867-0.258-0.309-0.46-0.31h-7c-0.1876 0.0034-0.3575 0.1115-0.44 0.28l-1.41 3.26c-0.675 0.162-1.1506 0.7659-1.15 1.46v3.5h1v1c0 0.5523 0.4477 1 1 1s1-0.4477 1-1v-1h7v1c0 0.5523 0.4477 1 1 1s1-0.4477 1-1v-1h1v-3.5zm-9.7-4h6.4l1.05 2.5h-8.5l1.05-2.5zm-1.3 6c-0.5523 0-1-0.4477-1-1s0.4477-1 1-1 1 0.4477 1 1-0.4477 1-1 1zm9 0c-0.5523 0-1-0.4477-1-1s0.4477-1 1-1 1 0.4477 1 1-0.448 1-1 1z" transform="translate(2 2)"/>
</svg>
