<?xml version="1.0" encoding="UTF-8" standalone="no"?>
<svg
   xmlns:osb="http://www.openswatchbook.org/uri/2009/osb"
   xmlns:dc="http://purl.org/dc/elements/1.1/"
   xmlns:cc="http://creativecommons.org/ns#"
   xmlns:rdf="http://www.w3.org/1999/02/22-rdf-syntax-ns#"
   xmlns:svg="http://www.w3.org/2000/svg"
   xmlns="http://www.w3.org/2000/svg"
   xmlns:xlink="http://www.w3.org/1999/xlink"
   xmlns:sodipodi="http://sodipodi.sourceforge.net/DTD/sodipodi-0.dtd"
   xmlns:inkscape="http://www.inkscape.org/namespaces/inkscape"
   viewBox="0 0 40 40"
   height="40"
   width="40"
   id="svg2"
   version="1.1"
   inkscape:version="0.91 r13725"
   sodipodi:docname="car-large.svg">
  <metadata
     id="metadata14">
    <rdf:RDF>
      <cc:Work
         rdf:about="">
        <dc:format>image/svg+xml</dc:format>
        <dc:type
           rdf:resource="http://purl.org/dc/dcmitype/StillImage" />
        <dc:title>car-15.svg</dc:title>
      </cc:Work>
    </rdf:RDF>
  </metadata>
  <defs
     id="defs12">
    <linearGradient
       inkscape:collect="always"
       id="linearGradient5634">
      <stop
         style="stop-color:#000000;stop-opacity:1;"
         offset="0"
         id="stop5636" />
      <stop
         style="stop-color:#000000;stop-opacity:0;"
         offset="1"
         id="stop5638" />
    </linearGradient>
    <linearGradient
       id="linearGradient5618"
       osb:paint="solid">
      <stop
         style="stop-color:#000000;stop-opacity:1;"
         offset="0"
         id="stop5620" />
    </linearGradient>
    <radialGradient
       inkscape:collect="always"
       xlink:href="#linearGradient5634"
       id="radialGradient5644"
       cx="9.5"
       cy="30.25"
       fx="9.5"
       fy="30.25"
       r="7.0000005"
       gradientTransform="matrix(2.5541636,0,0,2.0980629,-3.8854081,-42.152842)"
       gradientUnits="userSpaceOnUse" />
  </defs>
  <sodipodi:namedview
     pagecolor="#ffffff"
     bordercolor="#666666"
     borderopacity="1"
     objecttolerance="10"
     gridtolerance="10"
     guidetolerance="10"
     inkscape:pageopacity="0"
     inkscape:pageshadow="2"
     inkscape:window-width="1920"
     inkscape:window-height="1017"
     id="namedview10"
     showgrid="false"
     inkscape:zoom="12.421053"
     inkscape:cx="9.5"
     inkscape:cy="9.5"
     inkscape:window-x="-8"
     inkscape:window-y="-8"
     inkscape:window-maximized="1"
     inkscape:current-layer="svg2" />
  <title
     id="title4">car-15.svg</title>
  <rect
     x="0"
     y="21"
     width="19"
     height="19"
     id="rect6"
     style="fill:none" />
  <path
     d="m 36.981209,20.675018 c -0.01022,-1.763394 -1.222678,-3.292061 -2.937288,-3.703537 l -3.550287,-8.2754898 0,0 0,0 0,0 C 30.29773,8.2191288 29.834404,7.9067546 29.318719,7.9042004 l -17.879146,0 c -0.479161,0.00868 -0.913113,0.2847893 -1.123832,0.7151658 l 0,0 0,0 0,0 -3.6013702,8.3265738 c -1.7240604,0.413774 -2.9388206,1.956233 -2.9372881,3.729078 l 0,8.939573 2.5541636,0 0,2.554164 c 0,1.410664 1.143499,2.554163 2.5541636,2.554163 1.4106641,0 2.5541631,-1.143499 2.5541631,-2.554163 l 0,-2.554164 17.879146,0 0,2.554164 c 0,1.410664 1.143499,2.554163 2.554163,2.554163 1.410665,0 2.554164,-1.143499 2.554164,-2.554163 l 0,-2.554164 2.554163,0 0,-8.939573 z m -24.775386,-10.216654 16.346647,0 2.681871,6.385409 -21.7103902,0 2.6818722,-6.385409 z M 8.8854099,25.783346 c -1.4106646,0 -2.5541636,-1.143499 -2.5541636,-2.554164 0,-1.410665 1.143499,-2.554164 2.5541636,-2.554164 1.4106641,0 2.5541631,1.143499 2.5541631,2.554164 0,1.410665 -1.143499,2.554164 -2.5541631,2.554164 z m 22.9874721,0 c -1.410664,0 -2.554163,-1.143499 -2.554163,-2.554164 0,-1.410665 1.143499,-2.554164 2.554163,-2.554164 1.410665,0 2.554164,1.143499 2.554164,2.554164 0,1.410665 -1.143499,2.554164 -2.554164,2.554164 z"
     id="path8"
     inkscape:connector-curvature="0"
     style="fill:#000000;fill-opacity:1;stroke:url(#radialGradient5644);stroke-width:2.55416369" />
</svg>
